<svg xmlns="http://www.w3.org/2000/svg" viewBox="0 0 32 32" width="32" height="32">
  <rect width="32" height="32" rx="6" fill="#01696F"/>
  <!-- Kestrel hovering silhouette: compact body, swept wings, fanned tail -->
  <path d="M16 8 C13.5 10 12 12 11.6 14.2 L6 13 L11.4 16 C11.5 16.8 11.7 17.5 12 18.2 L9.5 22 L13 19.6 C13.8 20.4 14.8 21 16 21.2 L16 24 L17 21.2 C18.2 21 19.2 20.4 20 19.6 L23.5 22 L21 18.2 C21.3 17.5 21.5 16.8 21.6 16 L27 13 L21.4 14.2 C21 12 19.5 10 17 8 Z" fill="#f8f7f3"/>
  <circle cx="16" cy="11.5" r="0.9" fill="#01696F"/>
</svg>
